<svg version="1.1" id="Capa_1" xmlns="http://www.w3.org/2000/svg" xmlns:xlink="http://www.w3.org/1999/xlink" x="0px" y="0px"
	 width="612px" height="792px" viewBox="0 0 612 792" enable-background="new 0 0 612 792" xml:space="preserve">
<g>
	<g>
		<path fill="#FFCB24" d="M611.095,365.757l-44.624-111.474c-5.771-14.538-19.843-24.069-35.483-24.034H38.25
			C17.125,230.25,0,247.375,0,268.5v216.75c0,21.125,17.125,38.25,38.25,38.25h27.311c6.915,27.167,34.542,43.585,61.709,36.67
			c18.016-4.585,32.085-18.654,36.67-36.67h284.121c6.915,27.167,34.542,43.585,61.709,36.67
			c18.018-4.585,32.085-18.654,36.67-36.67h27.311c21.125,0,38.25-17.125,38.25-38.25v-114.75
			C612.001,368.876,611.694,367.267,611.095,365.757z M484.5,255.75h46.486c5.213,0.003,9.898,3.179,11.833,8.019l0.013-0.013
			L575.319,345h-90.818L484.5,255.75L484.5,255.75z M369.75,255.75H459v89.25h-89.25V255.75z M242.25,255.75h102v89.25h-102V255.75
			L242.25,255.75z M127.5,255.75h89.25v89.25H127.5V255.75z M25.5,268.5c0-7.042,5.709-12.75,12.75-12.75H102V345H25.5V268.5z
			 M114.75,536.25c-14.083,0-25.5-11.417-25.5-25.5s11.417-25.5,25.5-25.5s25.5,11.417,25.5,25.5S128.833,536.25,114.75,536.25z
			 M497.25,536.25c-14.083,0-25.5-11.417-25.5-25.5s11.417-25.5,25.5-25.5s25.5,11.417,25.5,25.5S511.333,536.25,497.25,536.25z
			 M586.5,396h-12.75c-7.042,0-12.75,5.709-12.75,12.75c0,7.042,5.708,12.751,12.75,12.751h12.75v63.749
			c0,7.042-5.708,12.751-12.75,12.751h-27.311c-6.915-27.167-34.542-43.585-61.709-36.67c-18.016,4.585-32.085,18.654-36.67,36.67
			H163.939c-6.915-27.167-34.542-43.585-61.709-36.67c-18.016,4.585-32.085,18.654-36.67,36.67H38.25
			c-7.042,0-12.75-5.709-12.75-12.751V370.5h560.018l0.981,2.448L586.5,396L586.5,396z"/>
	</g>
</g>
</svg>
