<svg xmlns="http://www.w3.org/2000/svg" viewBox="-3313.5 -1844.5 16 16.704">
  <defs>
    <style>
      .cls-1 {
        fill: #fff;
      }
    </style>
  </defs>
  <path id="_7G" data-name="7G" class="cls-1" d="M12.99,16.7a1.1,1.1,0,1,1,1.094-1.1A1.1,1.1,0,0,1,12.99,16.7ZM6.4,16.7a1.1,1.1,0,1,1,1.09-1.1A1.1,1.1,0,0,1,6.4,16.7Zm7.737-3.376H5.066a.544.544,0,0,1-.526-.408l-1.494-5.7a.046.046,0,0,0,0-.01.066.066,0,0,1,0-.015L2.693,5.87H.545a.545.545,0,1,1,0-1.091h2.57a.542.542,0,0,1,.526.408l.349,1.337,11.463.011a.55.55,0,0,1,.429.207.543.543,0,0,1,.1.462l-1.312,5.7A.545.545,0,0,1,14.142,13.328ZM4.278,7.614l1.21,4.623h8.217l1.066-4.612L4.278,7.614ZM9.2,5.474a.546.546,0,0,1-.545-.545V3.282H7.011a.545.545,0,1,1,0-1.091H8.657V.545a.545.545,0,0,1,1.091,0V2.192h1.646a.545.545,0,0,1,0,1.091H9.748V4.928A.546.546,0,0,1,9.2,5.474Z" transform="translate(-3313.5 -1844.5)"/>
</svg>
