<svg xmlns="http://www.w3.org/2000/svg" xmlns:xlink="http://www.w3.org/1999/xlink" viewBox="0 0 45.99 45.99"><defs><style>.cls-1,.cls-2{fill:none;}.cls-1{clip-rule:evenodd;}.cls-3{clip-path:url(#clip-path);}.cls-4{clip-path:url(#clip-path-2);}.cls-5{fill:#ffcb24;}.cls-6{clip-path:url(#clip-path-3);}</style><clipPath id="clip-path" transform="translate(-468 -328.01)"><polygon class="cls-1" points="499.39 342.36 488.84 360.63 482.45 349.56 484.11 349.56 488.84 357.75 497.72 342.36 499.39 342.36"/></clipPath><clipPath id="clip-path-2" transform="translate(-468 -328.01)"><rect class="cls-2" width="970" height="1589"/></clipPath><clipPath id="clip-path-3" transform="translate(-468 -328.01)"><path class="cls-1" d="M491,334.44A16.56,16.56,0,1,1,474.44,351,16.58,16.58,0,0,1,491,334.44Zm0-1.44a18,18,0,1,0,18,18A18,18,0,0,0,491,333Z"/></clipPath></defs><title>Asset 2</title><g id="Layer_2" data-name="Layer 2"><g id="Layer_1-2" data-name="Layer 1"><g class="cls-3"><g class="cls-4"><rect class="cls-5" x="9.45" y="9.36" width="26.94" height="28.27"/></g></g><g class="cls-6"><g class="cls-4"><rect class="cls-5" width="45.99" height="45.99"/></g></g></g></g></svg>