<svg xmlns="http://www.w3.org/2000/svg" xmlns:xlink="http://www.w3.org/1999/xlink" viewBox="7805.583 -4304.417 23.833 23.833">
  <defs>
    <style>
      .cls-1 {
        fill: none;
      }

      .cls-2 {
        fill: #000a12;
      }

      .cls-3 {
        clip-path: url(#clip-path);
      }

      .cls-4 {
        clip-path: url(#clip-path-2);
      }

      .cls-5 {
        fill: #ffcb24;
      }
    </style>
    <clipPath id="clip-path">
      <rect id="Icon_box" data-name="Icon box" class="cls-1" width="23.833" height="23.833"/>
    </clipPath>
    <clipPath id="clip-path-2">
      <path id="Check_Circle" data-name="Check Circle" class="cls-2" d="M11.917,23.833A11.916,11.916,0,1,1,23.833,11.917,11.93,11.93,0,0,1,11.917,23.833ZM6.749,10.239a1.064,1.064,0,0,0-.781.348,1.3,1.3,0,0,0-.011,1.725l3.605,3.957a1.049,1.049,0,0,0,1.549.036L18.2,9.15a1.294,1.294,0,0,0,.056-1.724,1.08,1.08,0,0,0-.814-.384,1.063,1.063,0,0,0-.757.324l-6.3,6.358L7.541,10.6A1.066,1.066,0,0,0,6.749,10.239Z"/>
    </clipPath>
  </defs>
  <g id="Icon" transform="translate(7805.583 -4304.417)">
    <rect id="Icon_box-2" data-name="Icon box" class="cls-1" width="23.833" height="23.833"/>
    <g id="Icon-3" data-name="Icon" class="cls-4">
      <g id="Fill_Green" data-name="Fill / Green" transform="translate(-1.603 -1.603)">
        <rect id="Fill" class="cls-5" width="27.04" height="27.04"/>
      </g>
    </g>
  </g>
</svg>
