<svg xmlns="http://www.w3.org/2000/svg" xmlns:xlink="http://www.w3.org/1999/xlink" viewBox="0 0 46 46"><defs><style>.cls-1,.cls-2{fill:none;}.cls-1{clip-rule:evenodd;}.cls-3{clip-path:url(#clip-path);}.cls-4{clip-path:url(#clip-path-2);}.cls-5{fill:#d0021b;}</style><clipPath id="clip-path" transform="translate(-468 -342)"><path class="cls-1" d="M491,363.84l5.79-5.79,1.16,1.16L492.16,365l5.79,5.79-1.16,1.16L491,366.16l-5.79,5.79-1.16-1.16,5.79-5.79-5.79-5.79,1.16-1.16Zm0,17.52A16.36,16.36,0,1,0,474.64,365,16.36,16.36,0,0,0,491,381.36Zm0,1.64a18,18,0,1,1,18-18A18,18,0,0,1,491,383Z"/></clipPath><clipPath id="clip-path-2" transform="translate(-468 -342)"><rect class="cls-2" width="970" height="1589"/></clipPath></defs><title>Asset 1</title><g id="Layer_2" data-name="Layer 2"><g id="Layer_1-2" data-name="Layer 1"><g class="cls-3"><g class="cls-4"><rect class="cls-5" width="46" height="46"/></g></g></g></g></svg>