<svg xmlns="http://www.w3.org/2000/svg" viewBox="-3183.21 -1841.294 11.616 10.608">
  <defs>
    <style>
      .cls-1 {
        fill: #fff;
      }
    </style>
  </defs>
  <g id="Group" transform="translate(-3183.5 -1841.5)">
    <path id="_3J" data-name="3J" class="cls-1" d="M5.881,10.608a.447.447,0,0,1-.149-.028.018.018,0,0,1-.013,0,.4.4,0,0,1-.125-.076l-.007,0-.005,0,0-.008-.006,0-.007,0-.095-.1c-1.8-1.848-2.8-2.9-3.325-3.465C.761,5.431,0,4.614,0,3.2A3.266,3.266,0,0,1,3.16,0,3.076,3.076,0,0,1,5.875,1.374,2.993,2.993,0,0,1,8.528,0a3.232,3.232,0,0,1,3.088,3.2c0,1.411-.74,2.228-2.083,3.712-1.265,1.4-3.32,3.552-3.332,3.563a.054.054,0,0,1-.01.009l0,0-.01.008a.469.469,0,0,1-.133.083l-.006,0-.006,0A.463.463,0,0,1,5.881,10.608ZM3.16.857A2.384,2.384,0,0,0,.878,3.2c0,1.034.492,1.615,1.914,3.143,1.023,1.1,2.573,2.692,3.083,3.214.017-.017,1.793-1.878,3-3.21,1.386-1.53,1.865-2.111,1.865-3.146A2.352,2.352,0,0,0,8.528.857,2.132,2.132,0,0,0,6.314,2.569l0,.006a.045.045,0,0,0,0,.008c0,.014-.008.031-.013.046l0,.008c0,.009-.006.02-.01.029l-.008.015c0,.007-.008.014-.011.022l-.008.014a.179.179,0,0,1-.014.023l-.01.012-.014.017-.008.009c-.007.009-.014.017-.022.025l-.017.015-.012.011-.013.01-.022.015a.15.15,0,0,1-.028.017l-.006,0-.019.009-.022.011a.172.172,0,0,1-.026.009l-.01,0a.313.313,0,0,1-.048.013l-.007,0-.007,0H5.93a.332.332,0,0,1-.052,0H5.81a.04.04,0,0,1-.016,0l-.017,0-.014,0a.369.369,0,0,1-.056-.02l-.01,0-.01,0L5.66,2.868l-.028-.017a.056.056,0,0,1-.017-.012A.379.379,0,0,1,5.569,2.8a.126.126,0,0,1-.017-.018l0,0L5.53,2.754,5.518,2.74A.265.265,0,0,1,5.5,2.706l-.01-.019-.01-.019c-.005-.014-.009-.025-.014-.04s-.009-.029-.013-.043l0-.006,0-.006A2.2,2.2,0,0,0,3.16.857Z" transform="translate(0.29 0.206)"/>
  </g>
</svg>
