<svg xmlns="http://www.w3.org/2000/svg" viewBox="-1733.5 196.5 12 16">
  <defs>
    <style>
      .cls-1 {
        fill: #969696;
      }
    </style>
  </defs>
  <path id="Shape" class="cls-1" d="M6,16A15.594,15.594,0,0,1,.406,14.97.652.652,0,0,1,0,14.391V8.251a.648.648,0,0,1,.408-.579c.19-.07.4-.143.67-.229a.128.128,0,0,0,.07-.092V4.679A4.773,4.773,0,0,1,6,0a4.773,4.773,0,0,1,4.852,4.679V7.351a.127.127,0,0,0,.069.092c.248.079.461.152.67.229A.648.648,0,0,1,12,8.251v6.14a.652.652,0,0,1-.405.579A15.594,15.594,0,0,1,6,16ZM6,8.847a1.3,1.3,0,0,0-1.322,1.274A1.249,1.249,0,0,0,5.339,11.2v2.107a.661.661,0,0,0,1.322,0V11.2a1.246,1.246,0,0,0,.661-1.079A1.3,1.3,0,0,0,6,8.847ZM6,6.658a15.681,15.681,0,0,1,3.183.327V4.679A3.132,3.132,0,0,0,6,1.609a3.132,3.132,0,0,0-3.184,3.07V6.985A15.715,15.715,0,0,1,6,6.658Z" transform="translate(-1733.5 196.5)"/>
</svg>
