<?xml version="1.0" encoding="utf-8"?>
<!-- Generator: Adobe Illustrator 21.0.0, SVG Export Plug-In . SVG Version: 6.00 Build 0)  -->
<svg version="1.1" id="Layer_1" xmlns="http://www.w3.org/2000/svg" xmlns:xlink="http://www.w3.org/1999/xlink" x="0px" y="0px"
	 viewBox="0 0 79.7 30.1" style="enable-background:new 0 0 79.7 30.1;" xml:space="preserve">
<style type="text/css">
	.st0{clip-path:url(#SVGID_2_);}
	.st1{clip-path:url(#SVGID_4_);enable-background:new    ;}
	.st2{clip-path:url(#SVGID_6_);}
	.st3{clip-path:url(#SVGID_8_);}
	.st4{clip-path:url(#SVGID_10_);fill:#FDD500;}
	.st5{clip-path:url(#SVGID_12_);}
	.st6{clip-path:url(#SVGID_14_);enable-background:new    ;}
	.st7{clip-path:url(#SVGID_16_);}
	.st8{clip-path:url(#SVGID_18_);}
	.st9{clip-path:url(#SVGID_20_);fill:#FDD500;}
	.st10{clip-path:url(#SVGID_22_);}
	.st11{clip-path:url(#SVGID_24_);enable-background:new    ;}
	.st12{clip-path:url(#SVGID_26_);}
	.st13{clip-path:url(#SVGID_28_);}
	.st14{clip-path:url(#SVGID_30_);fill:#FDD500;}
	.st15{clip-path:url(#SVGID_32_);}
	.st16{clip-path:url(#SVGID_34_);enable-background:new    ;}
	.st17{clip-path:url(#SVGID_36_);}
	.st18{clip-path:url(#SVGID_38_);}
	.st19{clip-path:url(#SVGID_40_);fill:#020303;}
	.st20{clip-path:url(#SVGID_42_);}
	.st21{clip-path:url(#SVGID_44_);enable-background:new    ;}
	.st22{clip-path:url(#SVGID_46_);}
	.st23{clip-path:url(#SVGID_48_);}
	.st24{clip-path:url(#SVGID_50_);fill:#020303;}
	.st25{clip-path:url(#SVGID_52_);}
	.st26{clip-path:url(#SVGID_54_);enable-background:new    ;}
	.st27{clip-path:url(#SVGID_56_);}
	.st28{clip-path:url(#SVGID_58_);}
	.st29{clip-path:url(#SVGID_60_);fill:#020303;}
	.st30{clip-path:url(#SVGID_62_);}
	.st31{clip-path:url(#SVGID_64_);enable-background:new    ;}
	.st32{clip-path:url(#SVGID_66_);}
	.st33{clip-path:url(#SVGID_68_);}
	.st34{clip-path:url(#SVGID_70_);fill:#020303;}
	.st35{clip-path:url(#SVGID_72_);}
	.st36{clip-path:url(#SVGID_74_);enable-background:new    ;}
	.st37{clip-path:url(#SVGID_76_);}
	.st38{clip-path:url(#SVGID_78_);}
	.st39{clip-path:url(#SVGID_80_);fill:#FDD500;}
	.st40{clip-path:url(#SVGID_82_);}
	.st41{clip-path:url(#SVGID_84_);enable-background:new    ;}
	.st42{clip-path:url(#SVGID_86_);}
	.st43{clip-path:url(#SVGID_88_);}
	.st44{clip-path:url(#SVGID_90_);fill:#FDD500;}
</style>
<title>Asset 1</title>
<g>
	<g>
		<defs>
			<path id="SVGID_1_" d="M4.9,10.6v4.6h1.2c0.1,0,0.3,0,0.5,0c0.2,0,0.4,0,0.6-0.1c0.2,0,0.4-0.1,0.6-0.2s0.4-0.2,0.5-0.4
				c0.1-0.2,0.3-0.4,0.4-0.6c0.1-0.3,0.2-0.6,0.2-1c0-0.5-0.1-0.9-0.3-1.2c-0.2-0.3-0.4-0.5-0.6-0.6c-0.2-0.2-0.5-0.3-0.8-0.3
				c-0.3-0.1-0.7-0.1-1-0.1H4.9z M4.9,3.8v4.3h1c0.3,0,0.6,0,0.9-0.1c0.4-0.1,0.7-0.3,1-0.6C8,7.1,8.1,6.8,8.2,6.6
				c0-0.2,0.1-0.5,0.1-0.8c0-0.3,0-0.6-0.1-0.8C8.1,4.8,7.9,4.5,7.7,4.3C7.4,4.1,7.1,3.9,6.8,3.9c-0.3,0-0.6-0.1-0.9-0.1H4.9z
				 M0.5,1.3h5.9c1.8,0,3.1,0.4,3.9,1.1c0.8,0.7,1.2,1.8,1.2,3.1c0,0.5-0.1,1-0.2,1.4c-0.1,0.4-0.3,0.7-0.6,1
				c-0.2,0.3-0.5,0.5-0.8,0.7C9.6,8.8,9.3,9,9,9.1c0.4,0.1,0.8,0.3,1.2,0.5c0.4,0.2,0.7,0.5,1,0.9c0.2,0.3,0.4,0.6,0.6,1.1
				c0.2,0.4,0.2,1,0.2,1.7c0,1-0.2,1.7-0.5,2.2c-0.3,0.5-0.7,0.9-1.1,1.2c-0.6,0.5-1.3,0.8-2.1,0.9c-0.7,0.1-1.4,0.2-2,0.2H0.5
				c-0.2,0-0.3,0-0.4-0.1C0,17.5,0,17.4,0,17.2v-1.3c0-0.3,0.1-0.5,0.2-0.5c0.1,0,0.2,0,0.3,0h1.2V3.6H0.5c-0.1,0-0.2,0-0.3,0
				C0,3.6,0,3.4,0,3.1V1.8C0,1.5,0,1.3,0.1,1.3C0.3,1.3,0.4,1.3,0.5,1.3z"/>
		</defs>
		<clipPath id="SVGID_2_">
			<use xlink:href="#SVGID_1_"  style="overflow:visible;"/>
		</clipPath>
		<g class="st0">
			<defs>
				<rect id="SVGID_3_" x="-32.3" y="-15.2" width="970" height="1385"/>
			</defs>
			<clipPath id="SVGID_4_">
				<use xlink:href="#SVGID_3_"  style="overflow:visible;"/>
			</clipPath>
			<g class="st1">
				<g>
					<defs>
						<rect id="SVGID_5_" x="-0.3" y="0.8" width="13" height="17"/>
					</defs>
					<clipPath id="SVGID_6_">
						<use xlink:href="#SVGID_5_"  style="overflow:visible;"/>
					</clipPath>
					<g class="st2">
						<defs>
							<rect id="SVGID_7_" x="-3.5" y="-2.2" width="19" height="23.3"/>
						</defs>
						<clipPath id="SVGID_8_">
							<use xlink:href="#SVGID_7_"  style="overflow:visible;"/>
						</clipPath>
						<g class="st3">
							<defs>
								<rect id="SVGID_9_" x="-0.3" y="0.8" width="13" height="17"/>
							</defs>
							<clipPath id="SVGID_10_">
								<use xlink:href="#SVGID_9_"  style="overflow:visible;"/>
							</clipPath>
							<rect x="-8.5" y="-7.2" class="st4" width="29" height="33.3"/>
						</g>
					</g>
				</g>
			</g>
		</g>
	</g>
	<g>
		<defs>
			<path id="SVGID_11_" d="M17.1,9.2c-0.1,0.3-0.1,0.7-0.2,1.1h3.8v-0.2c0-0.2,0-0.3,0-0.5c0-0.2,0-0.3-0.1-0.5
				c0-0.2-0.1-0.3-0.2-0.5c-0.1-0.2-0.2-0.4-0.4-0.5c-0.3-0.3-0.7-0.4-1.1-0.4c-0.3,0-0.5,0-0.7,0.1c-0.2,0.1-0.4,0.3-0.6,0.5
				C17.3,8.6,17.1,8.9,17.1,9.2z M16.9,5.9c0.6-0.3,1.3-0.5,2.2-0.5c0.5,0,1,0.1,1.5,0.2c0.6,0.1,1.1,0.4,1.6,0.9
				c0.5,0.4,0.9,1.1,1.2,1.9c0.3,0.8,0.5,1.9,0.5,3.3c0,0.3,0,0.5-0.1,0.6c-0.1,0.1-0.2,0.1-0.5,0.1h-6.4c0,0.9,0.2,1.6,0.6,2.1
				c0.4,0.6,1.1,0.8,2.1,0.8c0.6,0,1-0.1,1.4-0.2c0.4-0.1,0.7-0.2,0.9-0.4C22,15,22,15,22,15c0,0,0.1,0,0.1-0.1
				c0.2-0.1,0.3-0.1,0.4-0.1c0.1,0,0.2,0.1,0.3,0.2l0.6,1.4c0,0,0,0.1,0,0.1c0,0,0,0.1,0,0.1c0,0.1-0.1,0.3-0.4,0.5
				c-0.4,0.3-1,0.5-1.7,0.7c-0.7,0.2-1.4,0.3-2.1,0.3c-0.8,0-1.5-0.1-2.2-0.3c-0.7-0.2-1.2-0.6-1.7-1.1c-0.4-0.4-0.8-1-1.1-1.7
				c-0.3-0.7-0.5-1.7-0.5-2.9c0-1.1,0.1-2,0.4-2.8c0.2-0.8,0.6-1.5,1.2-2.2C15.8,6.7,16.3,6.3,16.9,5.9z"/>
		</defs>
		<clipPath id="SVGID_12_">
			<use xlink:href="#SVGID_11_"  style="overflow:visible;"/>
		</clipPath>
		<g class="st5">
			<defs>
				<rect id="SVGID_13_" x="-32.3" y="-15.2" width="970" height="1385"/>
			</defs>
			<clipPath id="SVGID_14_">
				<use xlink:href="#SVGID_13_"  style="overflow:visible;"/>
			</clipPath>
			<g class="st6">
				<g>
					<defs>
						<rect id="SVGID_15_" x="13.7" y="4.8" width="11" height="14"/>
					</defs>
					<clipPath id="SVGID_16_">
						<use xlink:href="#SVGID_15_"  style="overflow:visible;"/>
					</clipPath>
					<g class="st7">
						<defs>
							<rect id="SVGID_17_" x="10.4" y="2" width="16.9" height="19.5"/>
						</defs>
						<clipPath id="SVGID_18_">
							<use xlink:href="#SVGID_17_"  style="overflow:visible;"/>
						</clipPath>
						<g class="st8">
							<defs>
								<rect id="SVGID_19_" x="13.7" y="4.8" width="11" height="14"/>
							</defs>
							<clipPath id="SVGID_20_">
								<use xlink:href="#SVGID_19_"  style="overflow:visible;"/>
							</clipPath>
							<rect x="5.4" y="-3" class="st9" width="26.9" height="29.5"/>
						</g>
					</g>
				</g>
			</g>
		</g>
	</g>
	<g>
		<defs>
			<path id="SVGID_21_" d="M29.4,9.2c-0.1,0.3-0.1,0.7-0.2,1.1h3.8v-0.2c0-0.2,0-0.3,0-0.5c0-0.2,0-0.3-0.1-0.5
				c0-0.2-0.1-0.3-0.2-0.5c-0.1-0.2-0.2-0.4-0.4-0.5c-0.3-0.3-0.7-0.4-1.1-0.4c-0.3,0-0.5,0-0.7,0.1c-0.2,0.1-0.4,0.3-0.6,0.5
				C29.6,8.6,29.4,8.9,29.4,9.2z M29.2,5.9c0.6-0.3,1.3-0.5,2.2-0.5c0.5,0,1,0.1,1.5,0.2c0.6,0.1,1.1,0.4,1.6,0.9
				C35,7,35.4,7.6,35.7,8.5c0.3,0.8,0.5,1.9,0.5,3.3c0,0.3,0,0.5-0.1,0.6c-0.1,0.1-0.2,0.1-0.5,0.1h-6.4c0,0.9,0.2,1.6,0.6,2.1
				c0.4,0.6,1.1,0.8,2.1,0.8c0.6,0,1-0.1,1.4-0.2c0.4-0.1,0.7-0.2,0.9-0.4c0,0,0.1-0.1,0.1-0.1c0,0,0.1,0,0.1-0.1
				c0.2-0.1,0.3-0.1,0.4-0.1c0.1,0,0.2,0.1,0.3,0.2l0.6,1.4c0,0,0,0.1,0,0.1c0,0,0,0.1,0,0.1c0,0.1-0.1,0.3-0.4,0.5
				c-0.4,0.3-1,0.5-1.7,0.7c-0.7,0.2-1.4,0.3-2.1,0.3c-0.8,0-1.5-0.1-2.2-0.3c-0.7-0.2-1.2-0.6-1.7-1.1c-0.4-0.4-0.8-1-1.1-1.7
				c-0.3-0.7-0.5-1.7-0.5-2.9c0-1.1,0.1-2,0.4-2.8c0.2-0.8,0.6-1.5,1.2-2.2C28.1,6.7,28.6,6.3,29.2,5.9z"/>
		</defs>
		<clipPath id="SVGID_22_">
			<use xlink:href="#SVGID_21_"  style="overflow:visible;"/>
		</clipPath>
		<g class="st10">
			<defs>
				<rect id="SVGID_23_" x="-32.3" y="-15.2" width="970" height="1385"/>
			</defs>
			<clipPath id="SVGID_24_">
				<use xlink:href="#SVGID_23_"  style="overflow:visible;"/>
			</clipPath>
			<g class="st11">
				<g>
					<defs>
						<rect id="SVGID_25_" x="25.7" y="4.8" width="11" height="14"/>
					</defs>
					<clipPath id="SVGID_26_">
						<use xlink:href="#SVGID_25_"  style="overflow:visible;"/>
					</clipPath>
					<g class="st12">
						<defs>
							<rect id="SVGID_27_" x="22.7" y="2" width="16.9" height="19.5"/>
						</defs>
						<clipPath id="SVGID_28_">
							<use xlink:href="#SVGID_27_"  style="overflow:visible;"/>
						</clipPath>
						<g class="st13">
							<defs>
								<rect id="SVGID_29_" x="25.7" y="4.8" width="11" height="14"/>
							</defs>
							<clipPath id="SVGID_30_">
								<use xlink:href="#SVGID_29_"  style="overflow:visible;"/>
							</clipPath>
							<rect x="17.7" y="-3" class="st14" width="26.9" height="29.5"/>
						</g>
					</g>
				</g>
			</g>
		</g>
	</g>
	<g>
		<defs>
			<path id="SVGID_31_" d="M38.1,1.3c-0.2,0-0.4,0-0.4,0.1c0,0.1,0,0.2,0,0.3v4.5c0,0.1,0,0.2,0,0.3c0,0.1,0.1,0.1,0.4,0.1h1.4
				c0.1,0,0.1,0,0.3,0c0.1,0,0.2-0.1,0.2-0.4V3.9h1.7v11.5h-1.6c-0.1,0-0.2,0-0.3,0c-0.1,0-0.2,0.2-0.2,0.5v1.3
				c0,0.3,0.1,0.5,0.2,0.5c0.1,0,0.2,0,0.3,0h6.4c0.1,0,0.2,0,0.3,0c0.1,0,0.2-0.2,0.2-0.5v-1.3c0-0.3-0.1-0.5-0.2-0.5
				c-0.1,0-0.2,0-0.3,0h-1.6V3.9h1.7v2.3c0,0.1,0,0.2,0,0.3c0,0.1,0.1,0.1,0.4,0.1h1.4c0.1,0,0.1,0,0.2,0c0.1,0,0.2-0.1,0.2-0.4V1.7
				c0-0.2-0.1-0.4-0.2-0.4c-0.1,0-0.2,0-0.2,0H38.1z"/>
		</defs>
		<clipPath id="SVGID_32_">
			<use xlink:href="#SVGID_31_"  style="overflow:visible;"/>
		</clipPath>
		<g class="st15">
			<defs>
				<rect id="SVGID_33_" x="-32.3" y="-15.2" width="970" height="1385"/>
			</defs>
			<clipPath id="SVGID_34_">
				<use xlink:href="#SVGID_33_"  style="overflow:visible;"/>
			</clipPath>
			<g class="st16">
				<g>
					<defs>
						<rect id="SVGID_35_" x="37.7" y="0.8" width="12" height="17"/>
					</defs>
					<clipPath id="SVGID_36_">
						<use xlink:href="#SVGID_35_"  style="overflow:visible;"/>
					</clipPath>
					<g class="st17">
						<defs>
							<rect id="SVGID_37_" x="34.2" y="-2.2" width="18.1" height="23.3"/>
						</defs>
						<clipPath id="SVGID_38_">
							<use xlink:href="#SVGID_37_"  style="overflow:visible;"/>
						</clipPath>
						<g class="st18">
							<defs>
								<rect id="SVGID_39_" x="37.7" y="0.8" width="12" height="17"/>
							</defs>
							<clipPath id="SVGID_40_">
								<use xlink:href="#SVGID_39_"  style="overflow:visible;"/>
							</clipPath>
							<rect x="29.2" y="-7.2" class="st19" width="28.1" height="33.3"/>
						</g>
					</g>
				</g>
			</g>
		</g>
	</g>
	<g>
		<defs>
			<path id="SVGID_41_" d="M55.9,5.9c-0.5,0.3-0.9,0.7-1.3,1.2l-0.1,0.2L54.4,7c-0.1-0.3-0.2-0.5-0.3-0.8C54,6,53.8,5.9,53.6,5.9
				h-3.1c-0.2,0-0.3,0-0.3,0.1c0,0.1,0,0.2,0,0.2v1.6c0,0.2,0,0.3,0.1,0.3c0.1,0,0.2,0,0.2,0h1.1l0,0.2c0.1,0.4,0.2,0.8,0.2,1.1
				c0,0.4,0,0.6,0,0.7v5.3h-1.2c-0.2,0-0.3,0-0.3,0.1c0,0.1,0,0.2,0,0.2v1.6c0,0.2,0,0.3,0.1,0.3c0.1,0,0.2,0,0.2,0h5.5
				c0.2,0,0.3,0,0.3-0.1c0-0.1,0-0.1,0-0.2v-1.6c0-0.1,0-0.2,0-0.2c0-0.1-0.1-0.1-0.3-0.1h-1.3V9.4c0.3-0.3,0.5-0.5,0.8-0.8
				c0.3-0.3,0.6-0.4,1-0.4c0.1,0,0.3,0,0.4,0c0.2,0,0.3,0.1,0.4,0.2c0,0,0.1,0,0.1,0c0,0,0.1,0,0.1,0c0,0,0.1-0.1,0.1-0.2l0.7-2
				c0-0.1,0-0.3,0-0.4c-0.1-0.1-0.2-0.2-0.3-0.3c-0.1-0.1-0.3-0.1-0.5-0.1c-0.2,0-0.4,0-0.5,0C56.8,5.5,56.3,5.6,55.9,5.9z"/>
		</defs>
		<clipPath id="SVGID_42_">
			<use xlink:href="#SVGID_41_"  style="overflow:visible;"/>
		</clipPath>
		<g class="st20">
			<defs>
				<rect id="SVGID_43_" x="-32.3" y="-15.2" width="970" height="1385"/>
			</defs>
			<clipPath id="SVGID_44_">
				<use xlink:href="#SVGID_43_"  style="overflow:visible;"/>
			</clipPath>
			<g class="st21">
				<g>
					<defs>
						<rect id="SVGID_45_" x="49.7" y="4.8" width="10" height="13"/>
					</defs>
					<clipPath id="SVGID_46_">
						<use xlink:href="#SVGID_45_"  style="overflow:visible;"/>
					</clipPath>
					<g class="st22">
						<defs>
							<rect id="SVGID_47_" x="46.7" y="2" width="15.6" height="19.1"/>
						</defs>
						<clipPath id="SVGID_48_">
							<use xlink:href="#SVGID_47_"  style="overflow:visible;"/>
						</clipPath>
						<g class="st23">
							<defs>
								<rect id="SVGID_49_" x="49.7" y="4.8" width="10" height="13"/>
							</defs>
							<clipPath id="SVGID_50_">
								<use xlink:href="#SVGID_49_"  style="overflow:visible;"/>
							</clipPath>
							<rect x="41.7" y="-3" class="st24" width="25.6" height="29.1"/>
						</g>
					</g>
				</g>
			</g>
		</g>
	</g>
	<g>
		<defs>
			<path id="SVGID_51_" d="M60.7,5.4c-0.2,0-0.3,0-0.3,0.1c0,0.1,0,0.1,0,0.2v1.5c0,0.2,0,0.3,0.1,0.3c0.1,0,0.1,0,0.2,0h1.5v7.2
				h-1.5c-0.2,0-0.3,0-0.3,0.1c0,0.1,0,0.1,0,0.2v1.5c0,0.2,0,0.3,0.1,0.3c0.1,0,0.1,0,0.2,0h5.9c0.2,0,0.3,0,0.3-0.1
				c0-0.1,0-0.1,0-0.2v-1.5c0-0.1,0-0.2,0-0.2c0-0.1-0.1-0.1-0.3-0.1h-1.5V5.7c0-0.1,0-0.2,0-0.2c0-0.1-0.1-0.1-0.3-0.1H60.7z
				 M62.3,0.5c-0.4,0.4-0.5,0.8-0.5,1.4c0,0.5,0.2,1,0.5,1.4c0.4,0.4,0.8,0.6,1.4,0.6c0.5,0,1-0.2,1.3-0.6c0.4-0.4,0.5-0.8,0.5-1.4
				c0-0.5-0.2-1-0.5-1.4C64.6,0.2,64.2,0,63.6,0C63.1,0,62.6,0.2,62.3,0.5z"/>
		</defs>
		<clipPath id="SVGID_52_">
			<use xlink:href="#SVGID_51_"  style="overflow:visible;"/>
		</clipPath>
		<g class="st25">
			<defs>
				<rect id="SVGID_53_" x="-32.3" y="-15.2" width="970" height="1385"/>
			</defs>
			<clipPath id="SVGID_54_">
				<use xlink:href="#SVGID_53_"  style="overflow:visible;"/>
			</clipPath>
			<g class="st26">
				<g>
					<defs>
						<rect id="SVGID_55_" x="59.7" y="-0.2" width="8" height="18"/>
					</defs>
					<clipPath id="SVGID_56_">
						<use xlink:href="#SVGID_55_"  style="overflow:visible;"/>
					</clipPath>
					<g class="st27">
						<defs>
							<rect id="SVGID_57_" x="57" y="-3.4" width="13.1" height="23.8"/>
						</defs>
						<clipPath id="SVGID_58_">
							<use xlink:href="#SVGID_57_"  style="overflow:visible;"/>
						</clipPath>
						<g class="st28">
							<defs>
								<rect id="SVGID_59_" x="59.7" y="-0.2" width="8" height="18"/>
							</defs>
							<clipPath id="SVGID_60_">
								<use xlink:href="#SVGID_59_"  style="overflow:visible;"/>
							</clipPath>
							<rect x="52" y="-8.4" class="st29" width="23.1" height="33.8"/>
						</g>
					</g>
				</g>
			</g>
		</g>
	</g>
	<g>
		<defs>
			<path id="SVGID_61_" d="M73.9,15.5c0.2,0,0.4,0,0.5,0c0.3,0,0.6,0,0.8-0.1c0.2-0.1,0.5-0.2,0.7-0.5c0.3-0.4,0.5-0.8,0.5-1.4
				c0.1-0.6,0.1-1.2,0.1-1.9c0-0.4,0-0.8,0-1.2c0-0.4-0.1-0.9-0.2-1.2c-0.1-0.4-0.3-0.7-0.6-1c-0.3-0.3-0.6-0.4-1.1-0.4
				c-0.2,0-0.5,0-0.7,0.1c-0.2,0.1-0.4,0.2-0.6,0.3c-0.2,0.1-0.3,0.2-0.4,0.3c-0.1,0.1-0.2,0.2-0.2,0.2V15c0,0.1,0.1,0.1,0.2,0.2
				c0.1,0.1,0.3,0.1,0.5,0.1C73.6,15.4,73.7,15.4,73.9,15.5z M73.6,5.8c0.5-0.3,1.1-0.4,1.9-0.4c0.4,0,0.9,0.1,1.4,0.2
				c0.5,0.2,0.9,0.5,1.3,0.9c0.4,0.4,0.7,1,1,1.8c0.3,0.8,0.4,1.8,0.4,3c0,0.4,0,0.8,0,1.2c0,0.5-0.1,0.9-0.2,1.4
				c-0.1,0.5-0.2,0.9-0.4,1.4c-0.2,0.4-0.4,0.8-0.7,1.2c-0.3,0.3-0.6,0.6-1.1,0.8c-0.5,0.3-1.2,0.4-2,0.4c-0.5,0-0.9,0-1.2-0.1
				c-0.4-0.1-0.7-0.2-1.2-0.5V20h1.2c0.2,0,0.3,0,0.3,0.1c0,0.1,0,0.1,0,0.2v1.5c0,0.1,0,0.2,0,0.2c0,0.1-0.1,0.1-0.3,0.1h-5.5
				c-0.2,0-0.3,0-0.3-0.1c0-0.1,0-0.1,0-0.2v-1.5c0-0.1,0-0.1,0-0.2c0-0.1,0.1-0.1,0.3-0.1h1.2v-9.9V9.4c0-0.5,0-0.8-0.1-1
				c0-0.2-0.1-0.3-0.2-0.4h-1.1c-0.1,0-0.1,0-0.2,0C68,8,68,7.9,68,7.7V6.2C68,6.1,68,6,68,6c0-0.1,0.1-0.1,0.3-0.1h3.3
				c0.2,0,0.4,0.1,0.4,0.2c0.1,0.1,0.1,0.3,0.2,0.4l0.1,0.2l0.2-0.1C72.7,6.3,73.1,6.1,73.6,5.8z"/>
		</defs>
		<clipPath id="SVGID_62_">
			<use xlink:href="#SVGID_61_"  style="overflow:visible;"/>
		</clipPath>
		<g class="st30">
			<defs>
				<rect id="SVGID_63_" x="-32.3" y="-15.2" width="970" height="1385"/>
			</defs>
			<clipPath id="SVGID_64_">
				<use xlink:href="#SVGID_63_"  style="overflow:visible;"/>
			</clipPath>
			<g class="st31">
				<g>
					<defs>
						<rect id="SVGID_65_" x="67.7" y="4.8" width="12" height="18"/>
					</defs>
					<clipPath id="SVGID_66_">
						<use xlink:href="#SVGID_65_"  style="overflow:visible;"/>
					</clipPath>
					<g class="st32">
						<defs>
							<rect id="SVGID_67_" x="64.5" y="2.1" width="18.5" height="23.5"/>
						</defs>
						<clipPath id="SVGID_68_">
							<use xlink:href="#SVGID_67_"  style="overflow:visible;"/>
						</clipPath>
						<g class="st33">
							<defs>
								<rect id="SVGID_69_" x="67.7" y="4.8" width="12" height="18"/>
							</defs>
							<clipPath id="SVGID_70_">
								<use xlink:href="#SVGID_69_"  style="overflow:visible;"/>
							</clipPath>
							<rect x="59.5" y="-2.9" class="st34" width="28.5" height="33.5"/>
						</g>
					</g>
				</g>
			</g>
		</g>
	</g>
	<g>
		<defs>
			<path id="SVGID_71_" d="M14.3,30.1h9.4c0,0,1.1-6,11.1-11.9C34.8,18.2,15.3,24.1,14.3,30.1z"/>
		</defs>
		<clipPath id="SVGID_72_">
			<use xlink:href="#SVGID_71_"  style="overflow:visible;"/>
		</clipPath>
		<g class="st35">
			<defs>
				<rect id="SVGID_73_" x="-32.3" y="-15.2" width="970" height="1385"/>
			</defs>
			<clipPath id="SVGID_74_">
				<use xlink:href="#SVGID_73_"  style="overflow:visible;"/>
			</clipPath>
			<g class="st36">
				<g>
					<defs>
						<rect id="SVGID_75_" x="13.7" y="17.8" width="22" height="13"/>
					</defs>
					<clipPath id="SVGID_76_">
						<use xlink:href="#SVGID_75_"  style="overflow:visible;"/>
					</clipPath>
					<g class="st37">
						<defs>
							<rect id="SVGID_77_" x="10.9" y="14.7" width="27.3" height="18.9"/>
						</defs>
						<clipPath id="SVGID_78_">
							<use xlink:href="#SVGID_77_"  style="overflow:visible;"/>
						</clipPath>
						<g class="st38">
							<defs>
								<rect id="SVGID_79_" x="13.7" y="17.8" width="22" height="13"/>
							</defs>
							<clipPath id="SVGID_80_">
								<use xlink:href="#SVGID_79_"  style="overflow:visible;"/>
							</clipPath>
							<rect x="5.9" y="9.7" class="st39" width="37.3" height="28.9"/>
						</g>
					</g>
				</g>
			</g>
		</g>
	</g>
	<g>
		<defs>
			<path id="SVGID_81_" d="M3.4,30.1h9.6c0,0,0.4-6,22.5-11.9C35.5,18.2,10.9,18.2,3.4,30.1z"/>
		</defs>
		<clipPath id="SVGID_82_">
			<use xlink:href="#SVGID_81_"  style="overflow:visible;"/>
		</clipPath>
		<g class="st40">
			<defs>
				<rect id="SVGID_83_" x="-32.3" y="-15.2" width="970" height="1385"/>
			</defs>
			<clipPath id="SVGID_84_">
				<use xlink:href="#SVGID_83_"  style="overflow:visible;"/>
			</clipPath>
			<g class="st41">
				<g>
					<defs>
						<rect id="SVGID_85_" x="2.7" y="17.8" width="33" height="13"/>
					</defs>
					<clipPath id="SVGID_86_">
						<use xlink:href="#SVGID_85_"  style="overflow:visible;"/>
					</clipPath>
					<g class="st42">
						<defs>
							<rect id="SVGID_87_" x="-0.1" y="14.7" width="39" height="18.9"/>
						</defs>
						<clipPath id="SVGID_88_">
							<use xlink:href="#SVGID_87_"  style="overflow:visible;"/>
						</clipPath>
						<g class="st43">
							<defs>
								<rect id="SVGID_89_" x="2.7" y="17.8" width="33" height="13"/>
							</defs>
							<clipPath id="SVGID_90_">
								<use xlink:href="#SVGID_89_"  style="overflow:visible;"/>
							</clipPath>
							<rect x="-5.1" y="9.7" class="st44" width="49" height="28.9"/>
						</g>
					</g>
				</g>
			</g>
		</g>
	</g>
</g>
</svg>
