<svg xmlns="http://www.w3.org/2000/svg" viewBox="-1740.5 -185.5 43.382 27">
  <defs>
    <style>
      .cls-1 {
        fill: #d9222a;
      }

      .cls-2 {
        fill: #ee9f2d;
      }

      .cls-3 {
        fill: #fff;
      }
    </style>
  </defs>
  <g id="mastercard" transform="translate(-1740.5 -185.5)">
    <rect id="Rectangle-1" width="43.382" height="27" rx="2.323"/>
    <path id="Fill-1" class="cls-1" d="M20.766,10.29A10.383,10.383,0,1,1,10.383,0,10.337,10.337,0,0,1,20.766,10.29" transform="translate(4.338 3.21)"/>
    <path id="Fill-2" class="cls-2" d="M10.149,0A10.407,10.407,0,0,0,2.131,3.753h2.1a10.425,10.425,0,0,1,.791,1.09H1.34a10.216,10.216,0,0,0-.6,1.09H5.618a10.218,10.218,0,0,1,.44,1.089H.3A10.092,10.092,0,0,0,0,8.111H6.359a10.254,10.254,0,0,1,.234,2.179,10.189,10.189,0,0,1-.535,3.269H.3a10.131,10.131,0,0,0,.439,1.09H5.618a10.288,10.288,0,0,1-.6,1.09H1.34a10.412,10.412,0,0,0,.791,1.089h2.1a10.319,10.319,0,0,1-1.049,1.09A10.4,10.4,0,0,0,20.533,10.29,10.337,10.337,0,0,0,10.149,0" transform="translate(18.511 3.21)"/>
    <path id="Fill-3" d="M.335.665A.333.333,0,1,1,.335,0,.334.334,0,0,1,.671.332.335.335,0,0,1,.335.665Zm0-.585A.252.252,0,1,0,.59.332.254.254,0,0,0,.335.08ZM.29.48H.221V.186H.346A.138.138,0,0,1,.421.2.092.092,0,0,1,.458.275.081.081,0,0,1,.408.35L.461.477l-.076,0L.34.363H.29V.479Z" transform="translate(37.66 18.903)"/>
    <path id="Fill-4" d="M1.03,4.413A1.052,1.052,0,0,1,0,3.253c0-1.04.721-1.636,1.979-1.636a3.762,3.762,0,0,1,.46.032,1.059,1.059,0,0,0,.044-.275c0-.281-.2-.386-.724-.386H1.723A3.7,3.7,0,0,0,.567,1.18L.723.224A4.514,4.514,0,0,1,2.072,0,1.6,1.6,0,0,1,3.239.376a1.178,1.178,0,0,1,.313.869,5.376,5.376,0,0,1-.091.841c-.092.578-.307,1.93-.337,2.254H2.19l.022-.44A1.415,1.415,0,0,1,1.03,4.413ZM2.053,2.431c-.639,0-.963.217-.963.646a.392.392,0,0,0,.4.432c.457,0,.79-.436.81-1.061A1.9,1.9,0,0,0,2.053,2.431Z" transform="translate(9.993 12.178)"/>
    <path id="Fill-5" d="M4.52,5.22H3.393l.646-4.012L2.6,5.22H1.829L1.734,1.23,1.055,5.22H0L.881,0H2.5l.1,2.922L3.589,0h1.8L4.52,5.22" transform="translate(5.001 11.298)"/>
    <path id="Fill-6" d="M1.03,4.413A1.052,1.052,0,0,1,0,3.253c0-1.04.721-1.636,1.979-1.636a3.733,3.733,0,0,1,.459.032,1.031,1.031,0,0,0,.044-.275c0-.281-.2-.386-.723-.386H1.723A3.724,3.724,0,0,0,.566,1.18L.723.224A4.512,4.512,0,0,1,2.071,0,1.6,1.6,0,0,1,3.239.376a1.178,1.178,0,0,1,.313.869,5.344,5.344,0,0,1-.092.841l-.027.171c-.106.669-.283,1.789-.309,2.083H2.19L2.21,3.9A1.429,1.429,0,0,1,1.03,4.413ZM2.052,2.431c-.638,0-.962.217-.962.646a.392.392,0,0,0,.4.432c.458,0,.79-.436.809-1.061A1.9,1.9,0,0,0,2.052,2.431Z" transform="translate(27.751 12.178)"/>
    <path id="Fill-7" d="M1.7,4.823a2.6,2.6,0,0,1-.81.138A.821.821,0,0,1,0,4.028,9.692,9.692,0,0,1,.155,2.9C.22,2.5.644,0,.644,0h1.12L1.633.643H2.31l-.153,1.02H1.478c-.13.807-.315,1.813-.318,1.946,0,.219.118.314.386.314a.918.918,0,0,0,.3-.04l-.149.94" transform="translate(16.425 11.631)"/>
    <path id="Fill-8" d="M1.917,4.413H1.908A1.7,1.7,0,0,1,0,2.519C0,1.059.825,0,1.961,0A1.429,1.429,0,0,1,3.475,1.536,4.5,4.5,0,0,1,3.336,2.58H1.105a.736.736,0,0,0,.146.6,1.068,1.068,0,0,0,.828.271,2.665,2.665,0,0,0,1.165-.267L3.058,4.241A3.869,3.869,0,0,1,1.917,4.413ZM1.907.967c-.357,0-.612.269-.716.758H2.428c0-.006,0-.013,0-.023a.782.782,0,0,0-.125-.585A.511.511,0,0,0,1.907.967Z" transform="translate(18.503 12.178)"/>
    <path id="Fill-9" d="M.427,1.437a1.24,1.24,0,0,0,.858,1.185c.456.213.527.276.527.468,0,.265-.2.384-.647.384a3.2,3.2,0,0,1-1.01-.167s-.148.936-.155.98a5.238,5.238,0,0,0,1.173.126c1.189,0,1.739-.449,1.739-1.419a1.162,1.162,0,0,0-.795-1.183C1.644,1.6,1.59,1.548,1.59,1.35c0-.23.187-.347.552-.347a6.242,6.242,0,0,1,.81.064L3.112.083A7.708,7.708,0,0,0,2.12,0C.859,0,.423.653.427,1.437" transform="translate(13.366 12.178)"/>
    <path id="Fill-10" d="M5.073,1.292a2.166,2.166,0,0,1,1.007.282L6.264.441A3.327,3.327,0,0,0,5.025,0,2.25,2.25,0,0,0,3.185.983c-.654-.215-.923.219-1.253.652L1.639,1.7a2.123,2.123,0,0,0,.035-.427H.639C.5,2.589.247,3.92.051,5.235L0,5.52H1.128c.188-1.212.291-1.988.354-2.513l.425-.234c.063-.234.262-.313.66-.3a4.715,4.715,0,0,0-.08.87c0,1.389.756,2.253,1.97,2.253a3.563,3.563,0,0,0,1-.152l.2-1.19a2.207,2.207,0,0,1-.958.268c-.655,0-1.052-.479-1.052-1.272,0-1.149.59-1.955,1.431-1.955" transform="translate(21.971 10.998)"/>
    <path id="Fill-12" class="cls-3" d="M4.52,5.219H3.393l.646-4.012L2.6,5.219H1.829L1.734,1.23,1.055,5.219H0L.881,0H2.5l.046,3.231L3.641,0H5.392L4.52,5.219" transform="translate(5.325 10.989)"/>
    <path id="Fill-11" d="M3.537,5.293c-.814,0-1.361-.708-1.361-1.761A3.6,3.6,0,0,1,2.45,2.155H2.414c-.283,0-.459.172-.7.409-.072.07-.145.142-.23.217-.093.7-.212,1.522-.355,2.44H0l.051-.285c.064-.431.136-.87.2-1.3C.4,2.764.545,1.859.639.975H1.675c0,.082-.016.319-.05.636a9.265,9.265,0,0,0,.96.261A1.75,1.75,0,0,1,4.01.815a1.445,1.445,0,0,1,1.076.693L5.337,0H6.449L5.59,5.219H4.523l.053-.4A1.339,1.339,0,0,1,3.537,5.293Zm.687-3.316c-.515,0-.874.586-.874,1.426,0,.555.194.837.577.837.526,0,.894-.588.894-1.431C4.82,2.272,4.608,1.976,4.224,1.976Z" transform="translate(31.25 11.298)"/>
    <path id="Fill-13" class="cls-3" d="M1.03,4.413A1.052,1.052,0,0,1,0,3.253c0-1.04.721-1.636,1.979-1.636a3.929,3.929,0,0,1,.459.032,1.031,1.031,0,0,0,.044-.275c0-.281-.2-.386-.723-.386H1.727a3.793,3.793,0,0,0-1.161.191C.578,1.11.721.234.723.225A4.489,4.489,0,0,1,2.072,0,1.6,1.6,0,0,1,3.239.376a1.177,1.177,0,0,1,.313.868,5.319,5.319,0,0,1-.092.842l-.023.146c-.107.677-.287,1.811-.313,2.108H2.19L2.211,3.9A1.415,1.415,0,0,1,1.03,4.413ZM2.052,2.431c-.638,0-.962.217-.962.646a.393.393,0,0,0,.4.433c.457,0,.79-.436.81-1.061A1.8,1.8,0,0,0,2.052,2.431Z" transform="translate(10.317 11.869)"/>
    <path id="Fill-14" class="cls-3" d="M3.778.271,3.593,1.4a2.169,2.169,0,0,0-1.007-.282c-.842,0-1.432.806-1.432,1.955,0,.792.4,1.271,1.052,1.271a2.2,2.2,0,0,0,.958-.268l-.2,1.189a3.542,3.542,0,0,1-1,.153C.756,5.423,0,4.559,0,3.17,0,1.3,1.045,0,2.539,0A3.938,3.938,0,0,1,3.778.271" transform="translate(24.782 10.859)"/>
    <path id="Fill-15" class="cls-3" d="M1.03,4.413A1.052,1.052,0,0,1,0,3.253c0-1.04.721-1.636,1.979-1.636a3.929,3.929,0,0,1,.459.032,1.031,1.031,0,0,0,.044-.275c0-.281-.2-.386-.723-.386H1.728a3.793,3.793,0,0,0-1.161.191C.578,1.11.721.234.723.225A4.489,4.489,0,0,1,2.072,0,1.6,1.6,0,0,1,3.239.376a1.177,1.177,0,0,1,.312.868,5.325,5.325,0,0,1-.092.842l-.023.146c-.107.677-.287,1.811-.313,2.108H2.19L2.211,3.9A1.415,1.415,0,0,1,1.03,4.413ZM2.052,2.431c-.638,0-.962.217-.962.646a.393.393,0,0,0,.4.433c.457,0,.79-.436.81-1.061A1.8,1.8,0,0,0,2.052,2.431Z" transform="translate(28.075 11.869)"/>
    <path id="Fill-16" class="cls-3" d="M1.7,4.823a2.6,2.6,0,0,1-.81.138A.821.821,0,0,1,0,4.028,9.745,9.745,0,0,1,.155,2.9C.22,2.5.644,0,.644,0h1.12L1.633.643h.575l-.153,1.02H1.478c-.13.808-.316,1.813-.318,1.946,0,.22.118.314.386.314a.921.921,0,0,0,.3-.04L1.7,4.823" transform="translate(16.749 11.321)"/>
    <path id="Fill-17" class="cls-3" d="M1.917,4.413H1.908A1.7,1.7,0,0,1,0,2.519C0,1.059.825,0,1.961,0A1.429,1.429,0,0,1,3.475,1.536,4.528,4.528,0,0,1,3.337,2.58H1.105a.738.738,0,0,0,.147.6,1.068,1.068,0,0,0,.827.271,2.666,2.666,0,0,0,1.165-.268L3.058,4.241A3.869,3.869,0,0,1,1.917,4.413ZM1.906.967c-.357,0-.611.269-.715.757H2.428c0-.006,0-.013,0-.023a.78.78,0,0,0-.125-.584A.513.513,0,0,0,1.906.967Z" transform="translate(18.828 11.869)"/>
    <path id="Fill-18" class="cls-3" d="M.426,1.437a1.24,1.24,0,0,0,.858,1.185c.456.213.527.276.527.468,0,.265-.2.384-.647.384a3.2,3.2,0,0,1-1.01-.167s-.148.936-.154.98a5.276,5.276,0,0,0,1.173.126c1.19,0,1.739-.449,1.739-1.419a1.162,1.162,0,0,0-.795-1.183C1.644,1.6,1.59,1.549,1.59,1.35c0-.229.188-.347.552-.347a6.267,6.267,0,0,1,.81.064l.16-.985A7.7,7.7,0,0,0,2.12,0C.859,0,.423.652.426,1.437" transform="translate(13.69 11.869)"/>
    <path id="Fill-19" class="cls-3" d="M1.361,5.293C.547,5.293,0,4.585,0,3.532,0,2.121.84.93,1.834.93a1.277,1.277,0,0,1,1.076.579L3.161,0H4.272L3.414,5.219H2.347l.053-.4A1.342,1.342,0,0,1,1.361,5.293Zm.687-3.316c-.515,0-.875.586-.875,1.426,0,.555.195.836.579.836.526,0,.893-.588.893-1.43C2.644,2.272,2.432,1.976,2.048,1.976Z" transform="translate(33.751 10.989)"/>
    <path id="Fill-20" class="cls-3" d="M.639.046C.5,1.359.248,2.69.052,4L0,4.29H1.127c.4-2.6.5-3.1,1.133-3.039A4.147,4.147,0,0,1,2.688.02c-.472-.1-.736.167-1.081.669A3.8,3.8,0,0,0,1.675.046H.639" transform="translate(31.574 11.918)"/>
    <path id="Fill-21" class="cls-3" d="M.639.046C.5,1.359.247,2.69.051,4L0,4.29H1.128c.4-2.6.5-3.1,1.132-3.039A4.175,4.175,0,0,1,2.688.02c-.472-.1-.736.167-1.08.669A3.854,3.854,0,0,0,1.675.046H.639" transform="translate(22.295 11.918)"/>
  </g>
</svg>
