<svg xmlns="http://www.w3.org/2000/svg" xmlns:xlink="http://www.w3.org/1999/xlink" viewBox="-1239.5 -376.395 54.005 48.32">
  <defs>
    <style>
      .cls-1 {
        fill: none;
      }

      .cls-2 {
        clip-path: url(#clip-path);
      }
    </style>
    <clipPath id="clip-path">
      <path id="Clip_14" data-name="Clip 14" class="cls-1" d="M27,48.32H54V0H0V48.32Z" transform="translate(0 0.094)"/>
    </clipPath>
  </defs>
  <g id="Page_1" data-name="Page 1" transform="translate(-1239.5 -376.5)">
    <path id="Fill_1" data-name="Fill 1" d="M1.066,2.132h19.9a1.066,1.066,0,0,0,0-2.132H1.066a1.066,1.066,0,0,0,0,2.132" transform="translate(8.882 11.83)"/>
    <path id="Fill_3" data-name="Fill 3" d="M1.066,2.132h19.9a1.066,1.066,0,0,0,0-2.132H1.066a1.066,1.066,0,0,0,0,2.132" transform="translate(8.882 18.226)"/>
    <path id="Fill_5" data-name="Fill 5" d="M8.172,0H1.066a1.066,1.066,0,1,0,0,2.132H8.172A1.066,1.066,0,0,0,8.172,0" transform="translate(36.595 11.83)"/>
    <path id="Fill_7" data-name="Fill 7" d="M8.172,0H1.066a1.066,1.066,0,1,0,0,2.132H8.172A1.066,1.066,0,0,0,8.172,0" transform="translate(36.595 18.226)"/>
    <path id="Fill_9" data-name="Fill 9" d="M4.729,16.348a1.067,1.067,0,0,1-1.067-1.066v-.3a4.546,4.546,0,0,1-2.37-.994A3.623,3.623,0,0,1,0,11.167a1.066,1.066,0,1,1,2.132,0,1.49,1.49,0,0,0,.538,1.192,2.345,2.345,0,0,0,.992.452V8.84l-.008,0-.007,0A7.281,7.281,0,0,1,1.5,7.973,3.3,3.3,0,0,1,.473,6.936,3.365,3.365,0,0,1,0,5.15,3.748,3.748,0,0,1,.574,3.165,3.88,3.88,0,0,1,2.507,1.616a5.207,5.207,0,0,1,1.157-.281v-.27a1.066,1.066,0,0,1,2.132,0v.319a5.544,5.544,0,0,1,1.549.466A3.733,3.733,0,0,1,9.112,3.575,3.671,3.671,0,0,1,9.458,5.15a1.066,1.066,0,0,1-2.132,0,1.477,1.477,0,0,0-.139-.656,1.387,1.387,0,0,0-.418-.507,2.635,2.635,0,0,0-.976-.43V7.183l.032.009A6.668,6.668,0,0,1,8,8.161a3.48,3.48,0,0,1,1,1.131,3.854,3.854,0,0,1,.446,1.874A3.791,3.791,0,0,1,9.024,13a3.386,3.386,0,0,1-1.2,1.264,5.2,5.2,0,0,1-2.03.679v.339A1.067,1.067,0,0,1,4.729,16.348ZM5.8,9.415v3.368l.047-.007.018,0a.671.671,0,0,0,.081-.014,2.347,2.347,0,0,0,.9-.407,1.183,1.183,0,0,0,.308-.365,1.7,1.7,0,0,0,.175-.82,1.584,1.584,0,0,0-.233-.931,1.734,1.734,0,0,0-.665-.554A4.155,4.155,0,0,0,5.8,9.415ZM3.664,3.5a2.784,2.784,0,0,0-.4.112,1.885,1.885,0,0,0-.68.432,1.613,1.613,0,0,0-.452,1.111,1.339,1.339,0,0,0,.122.608,1.063,1.063,0,0,0,.325.37,3.664,3.664,0,0,0,1.084.494Z" transform="translate(36.375 26.753)"/>
    <path id="Fill_11" data-name="Fill 11" d="M19.9,9.949H2.842A2.846,2.846,0,0,1,0,7.105V2.842A2.845,2.845,0,0,1,2.842,0H19.9a2.85,2.85,0,0,1,2.842,2.842V7.105A2.846,2.846,0,0,1,19.9,9.949ZM2.842,2.132a.72.72,0,0,0-.71.71V7.105a.72.72,0,0,0,.71.711H19.9a.721.721,0,0,0,.711-.711V2.842a.72.72,0,0,0-.711-.71Z" transform="translate(8.527 29.95)"/>
    <g id="Group_15" data-name="Group 15" transform="translate(0 0.011)">
      <path id="Clip_14-2" data-name="Clip 14" class="cls-1" d="M27,48.32H54V0H0V48.32Z" transform="translate(0 0.094)"/>
      <g id="Group_15-2" data-name="Group 15" class="cls-2">
        <path id="Fill_13" data-name="Fill 13" d="M51.162,48.32H2.842A2.845,2.845,0,0,1,0,45.478V2.842A2.845,2.845,0,0,1,2.842,0H8.528V1.421a1.421,1.421,0,1,0,2.842,0V0h5.684V1.421a1.422,1.422,0,0,0,2.843,0V0h5.684V1.421a1.421,1.421,0,0,0,2.842,0V0h5.684V1.421a1.421,1.421,0,0,0,2.842,0V0h5.685V1.421a1.421,1.421,0,0,0,2.842,0V0h5.684A2.845,2.845,0,0,1,54,2.842V45.478A2.845,2.845,0,0,1,51.162,48.32ZM2.842,2.132a.72.72,0,0,0-.71.71V45.478a.72.72,0,0,0,.71.71h48.32a.72.72,0,0,0,.711-.71V2.842a.72.72,0,0,0-.711-.71H47.534a3.553,3.553,0,0,1-6.962,0H39.009a3.553,3.553,0,0,1-6.962,0H30.482a3.553,3.553,0,0,1-6.962,0H21.956a3.553,3.553,0,0,1-6.962,0H13.43a3.553,3.553,0,0,1-6.962,0Z" transform="translate(0 0.094)"/>
      </g>
    </g>
  </g>
</svg>
