<svg xmlns="http://www.w3.org/2000/svg" viewBox="-3743.5 -1247.5 19.999 19.089">
  <defs>
    <style>
      .cls-1 {
        fill: #fff;
      }
    </style>
  </defs>
  <path id="_4J" data-name="4J" class="cls-1" d="M15.755,19.088a.688.688,0,0,1-.321-.08L10,16.154,4.566,19.009a.662.662,0,0,1-.32.077.682.682,0,0,1-.679-.8L4.6,12.23.208,7.949a.7.7,0,0,1-.175-.707.682.682,0,0,1,.556-.468l6.076-.886L9.382.385a.687.687,0,0,1,1.235,0l2.717,5.5,6.076.886a.68.68,0,0,1,.556.468.7.7,0,0,1-.175.707L15.4,12.23l1.038,6.053a.686.686,0,0,1-.678.8ZM10,14.685a.692.692,0,0,1,.32.079l4.52,2.377-.862-5.034a.676.676,0,0,1,.2-.606l3.657-3.567L12.778,7.2a.691.691,0,0,1-.518-.377L10,2.244,7.74,6.824a.691.691,0,0,1-.518.377l-5.053.734L5.825,11.5a.686.686,0,0,1,.2.606L5.16,17.141l4.52-2.377A.692.692,0,0,1,10,14.685Z" transform="translate(-3743.5 -1247.5)"/>
</svg>
