<svg xmlns="http://www.w3.org/2000/svg" xmlns:xlink="http://www.w3.org/1999/xlink" viewBox="-2105.5 184.545 35.972 17.955">
  <defs>
    <style>
      .cls-1 {
        fill: none;
      }

      .cls-2 {
        clip-path: url(#clip-path);
      }

      .cls-3 {
        fill: #231f20;
      }
    </style>
    <clipPath id="clip-path">
      <path id="Clip_2" data-name="Clip 2" class="cls-1" d="M0,17.955H35.972V0H0Z" transform="translate(0 0.045)"/>
    </clipPath>
  </defs>
  <g id="Page_1" data-name="Page 1" transform="translate(-2105.5 184.5)">
    <g id="Group_3" data-name="Group 3">
      <path id="Clip_2-2" data-name="Clip 2" class="cls-1" d="M0,17.955H35.972V0H0Z" transform="translate(0 0.045)"/>
      <g id="Group_3-2" data-name="Group 3" class="cls-2">
        <path id="Fill_1" data-name="Fill 1" class="cls-3" d="M29.768,17.955a3.633,3.633,0,0,1-3.578-3.067l-.041-.245H9.859l-.04.245a3.623,3.623,0,0,1-7.2-.479l-.008-.216L2.4,14.136a3.947,3.947,0,0,1-1.612-.855A2.4,2.4,0,0,1,0,11.459v-4.4A1.859,1.859,0,0,1,1.6,5.108l.02,0,3.718-.455L6.363,2.67A4.641,4.641,0,0,1,10.213,0h8c1.847,0,2.648.782,3.559,2.323l2.156,3.665h1.215a37.572,37.572,0,0,1,7.51.688c.186.054.375.117.562.186l.03.011.006,0a3.748,3.748,0,0,1,2.726,3.543v3.855a.367.367,0,0,1-.364.369H33.385l-.04.245A3.632,3.632,0,0,1,29.768,17.955Zm0-6.624a2.944,2.944,0,1,0,2.9,2.943A2.926,2.926,0,0,0,29.768,11.331Zm-23.528,0a2.944,2.944,0,1,0,2.9,2.943A2.926,2.926,0,0,0,6.241,11.331Zm0-.738a3.633,3.633,0,0,1,3.578,3.068l.04.244h16.29l.041-.245a3.62,3.62,0,0,1,7.155,0l.04.244h1.859V10.419c0-.031,0-.062,0-.093l-.008-.285H32.373a.364.364,0,0,1-.257-.107.377.377,0,0,1-.106-.261V8.363a1.579,1.579,0,0,1,.169-.679l.164-.336-.361-.081a42.154,42.154,0,0,0-6.843-.543H9.506a1.274,1.274,0,0,1-1.074-.547,1.3,1.3,0,0,1-.079-1.232s.005-.013.01-.023l.715-1.507a2.4,2.4,0,0,1,2.357-1.444H20.76l-.507-.5A2.611,2.611,0,0,0,18.212.738h-8A3.925,3.925,0,0,0,7,3.02L5.9,5.167a.367.367,0,0,1-.3.2l-.019,0-3.852.471-.01,0a1.335,1.335,0,0,0-.566.243l-.681.526h1.2A1.683,1.683,0,0,1,3.339,8.3V9.638a.367.367,0,0,1-.364.369H.727v1.452a2.054,2.054,0,0,0,1.687,1.91l.276.088.086-.281A3.621,3.621,0,0,1,6.241,10.593ZM33.126,7.614l-.139.164a.974.974,0,0,0-.25.585v.942H35.1l-.315-.463A3.411,3.411,0,0,0,33.322,7.7ZM.727,7.345V9.269H2.611V8.3a.95.95,0,0,0-.942-.955ZM11.435,2.711a1.686,1.686,0,0,0-1.7,1.027l-.711,1.5,0,.013a.562.562,0,0,0,.016.519.562.562,0,0,0,.472.222H23.075L21.149,2.711Z" transform="translate(0 0.045)"/>
      </g>
    </g>
    <path id="Fill_4" data-name="Fill 4" class="cls-3" d="M.369,1C.166,1,0,.775,0,.5S.166,0,.369,0H17.631c.2,0,.369.224.369.5s-.165.5-.369.5Z" transform="translate(9 9)"/>
    <path id="Fill_6" data-name="Fill 6" class="cls-3" d="M1.5,3a1.5,1.5,0,1,1,0-3,.332.332,0,0,1,0,.664.836.836,0,1,0,.836.836A.332.332,0,0,1,3,1.5,1.5,1.5,0,0,1,1.5,3" transform="translate(5 13)"/>
    <path id="Fill_8" data-name="Fill 8" class="cls-3" d="M1.5,3a1.5,1.5,0,1,1,0-3,.332.332,0,1,1,0,.664.836.836,0,1,0,.836.836A.332.332,0,0,1,3,1.5,1.5,1.5,0,0,1,1.5,3" transform="translate(28 13)"/>
  </g>
</svg>
