<svg xmlns="http://www.w3.org/2000/svg" xmlns:xlink="http://www.w3.org/1999/xlink" viewBox="5995.5 -3925.083 44.97 43.582">
  <defs>
    <style>
      .cls-1 {
        fill: none;
      }

      .cls-2 {
        clip-path: url(#clip-path);
      }

      .cls-3 {
        fill: #ffcb23;
      }
    </style>
    <clipPath id="clip-path">
      <path id="Clip_2" data-name="Clip 2" class="cls-1" d="M44.97,43.582V0H0V43.582Z" transform="translate(0 0.418)"/>
    </clipPath>
  </defs>
  <g id="Page_1" data-name="Page 1" transform="translate(5995.5 -3925.5)">
    <g id="Group_3" data-name="Group 3">
      <path id="Clip_2-2" data-name="Clip 2" class="cls-1" d="M44.97,43.582V0H0V43.582Z" transform="translate(0 0.418)"/>
      <g id="Group_3-2" data-name="Group 3" class="cls-2">
        <path id="Fill_1" data-name="Fill 1" class="cls-3" d="M29.982,43.582a.8.8,0,0,1-.28-.055l-.015,0a.037.037,0,0,1-.022-.006L15.79,37.772,1.1,42.7a.871.871,0,0,1-.265.045.8.8,0,0,1-.488-.161A.834.834,0,0,1,0,41.906V5.868a.837.837,0,0,1,.57-.8L15.557.04h.021c.015,0,.031-.008.047-.011l.027-.006A.585.585,0,0,1,15.787,0l.02,0h.041c.048,0,.092.009.14.015l.025.006a.354.354,0,0,0,.045.011l.052.02a.58.58,0,0,1,.07.029l.01,0A.068.068,0,0,1,16.214.1L29.982,7.433,43.751.1a.816.816,0,0,1,.816.02.831.831,0,0,1,.4.721V35.2a.849.849,0,0,1-.444.741L30.372,43.485a.475.475,0,0,1-.057.021l-.045.016-.033.013-.036.014A.734.734,0,0,1,29.982,43.582ZM17.42,24.377h.022a.828.828,0,0,1,.829.823.839.839,0,0,1-.813.856c-.215,0-.412.022-.6.041l-.038,0-.162.016v10.2l12.49,5.174,0-13.176a13.939,13.939,0,0,1-2.15-.24.839.839,0,0,1,.157-1.662.805.805,0,0,1,.16.016,11.782,11.782,0,0,0,1.833.221V8.884L16.655,2.23V24.415l.083-.005C16.961,24.4,17.192,24.381,17.42,24.377ZM43.307,2.23,30.815,8.884V26.716a.825.825,0,0,1,0,1.508V41.348l12.492-6.654ZM14.989,2,1.668,6.471V40.74l13.321-4.466V26.349c-.08.018-.163.032-.242.047l-.03.005c-.111.02-.236.042-.349.071a.763.763,0,0,1-.215.03.839.839,0,0,1-.211-1.651c.335-.086.687-.163,1.048-.228Z" transform="translate(0 0.418)"/>
      </g>
    </g>
    <path id="Fill_4" data-name="Fill 4" class="cls-3" d="M4.018,11.2a.836.836,0,0,1-.8-.862V8.529A4.26,4.26,0,0,1,0,4.306,4.174,4.174,0,0,1,4.018,0,4.175,4.175,0,0,1,8.036,4.306,4.261,4.261,0,0,1,4.822,8.529v1.808A.836.836,0,0,1,4.018,11.2Zm0-9.475A2.505,2.505,0,0,0,1.6,4.306,2.508,2.508,0,0,0,4.018,6.893,2.506,2.506,0,0,0,6.427,4.306,2.5,2.5,0,0,0,4.018,1.724Z" transform="translate(4.821 7.2)"/>
    <path id="Fill_6" data-name="Fill 6" class="cls-3" d="M.5,4.745A.815.815,0,0,0,.785,4.8a.791.791,0,0,0,.731-.525A19.236,19.236,0,0,0,2.4.97.821.821,0,0,0,1.769.011.8.8,0,0,0,.854.669a17.1,17.1,0,0,1-.8,3.008A.841.841,0,0,0,.5,4.745" transform="translate(36.964 17.6)"/>
    <path id="Fill_8" data-name="Fill 8" class="cls-3" d="M2.785.132a11.409,11.409,0,0,0-2.6,2.444A.915.915,0,0,0,.287,3.8.763.763,0,0,0,.8,4a.77.77,0,0,0,.615-.309A9.8,9.8,0,0,1,3.641,1.6.908.908,0,0,0,3.9.407.774.774,0,0,0,2.785.132" transform="translate(8.036 26.4)"/>
    <path id="Fill_10" data-name="Fill 10" class="cls-3" d="M1.975.075a.728.728,0,0,0-1,.4A14.035,14.035,0,0,0,.008,3.865a.808.808,0,0,0,.642.927.433.433,0,0,0,.1.008A.784.784,0,0,0,1.5,4.092a12.4,12.4,0,0,1,.844-2.92.867.867,0,0,0-.367-1.1" transform="translate(4.821 31.2)"/>
    <path id="Fill_12" data-name="Fill 12" class="cls-3" d="M.8,4a.733.733,0,0,0,.36-.1A8.622,8.622,0,0,0,3.843,1.437.956.956,0,0,0,3.719.192.743.743,0,0,0,2.6.331a6.908,6.908,0,0,1-2.17,2A.933.933,0,0,0,.088,3.521.792.792,0,0,0,.8,4" transform="translate(32.946 24)"/>
    <path id="Fill_14" data-name="Fill 14" class="cls-3" d="M4.315.856C3.953.707,3.74.6,3.725.6A.619.619,0,0,0,3.556.535C2.668.312,1.789.136.949.01a.817.817,0,0,0-.94.67A.809.809,0,0,0,.7,1.6c.76.113,1.555.27,2.366.47.109.05.322.147.615.27a.83.83,0,0,0,1.076-.431A.794.794,0,0,0,4.315.856" transform="translate(20.089 24.8)"/>
    <path id="Fill_16" data-name="Fill 16" class="cls-3" d="M.72,4.8c.015,0,.034,0,.049,0a.786.786,0,0,0,.767-.75c.048-.769.071-1.582.071-2.417,0-.277,0-.558-.008-.847A.807.807,0,0,0,.818,0,.79.79,0,0,0,.062.817c0,.277.008.551.008.816,0,.8-.022,1.578-.067,2.317A.786.786,0,0,0,.72,4.8" transform="translate(38.571 11.2)"/>
    <path id="Fill_18" data-name="Fill 18" class="cls-3" d="M.236,4.567a.811.811,0,0,0,1.138,0L2.413,3.535,3.453,4.567A.8.8,0,1,0,4.586,3.436L3.547,2.4,4.586,1.366A.8.8,0,1,0,3.453.235L2.413,1.268,1.374.235a.806.806,0,0,0-1.138,0,.8.8,0,0,0,0,1.131L1.275,2.4.236,3.436a.8.8,0,0,0,0,1.131" transform="translate(6.429 18.4)"/>
  </g>
</svg>
