<svg xmlns="http://www.w3.org/2000/svg" viewBox="-1788.5 -185.5 44.325 27">
  <defs>
    <style>
      .cls-1 {
        fill: #0e4595;
      }

      .cls-2 {
        fill: #fff;
      }

      .cls-3 {
        fill: #f2ae14;
      }
    </style>
  </defs>
  <g id="visa" transform="translate(-1788.5 -185.5)">
    <rect id="Rectangle-1" class="cls-1" width="44.325" height="27" rx="2.344"/>
    <path id="Shape" class="cls-2" d="M0,11.222,1.972,0H5.125L3.152,11.222Z" transform="translate(16.442 7.938)"/>
    <path id="path13" class="cls-2" d="M9.463.471A8.37,8.37,0,0,0,6.636,0C3.52,0,1.325,1.522,1.307,3.7,1.289,5.316,2.874,6.215,4.07,6.752c1.227.55,1.64.9,1.634,1.392-.008.752-.98,1.1-1.887,1.1A6.786,6.786,0,0,1,.849,8.651L.443,8.473,0,10.985a10.259,10.259,0,0,0,3.513.6c3.315,0,5.467-1.5,5.491-3.834C9.016,6.473,8.176,5.5,6.356,4.7c-1.1-.519-1.777-.866-1.77-1.391,0-.466.571-.965,1.806-.965a5.974,5.974,0,0,1,2.36.43l.283.129L9.463.471" transform="translate(21.524 7.708)"/>
    <path id="Path" class="cls-2" d="M3.311,11.216H0L4.684.931A1.569,1.569,0,0,1,6.335,0H8.771l2.552,11.214H8.4c0-.017-.293-1.3-.383-1.681l-2.221,0-1.818,0c-.122.3-.659,1.673-.664,1.687Zm3.27-8.174c-.087.225-.207.526-.294.746s-.126.318-.126.323c-.01.025-1,2.5-1.256,3.135H7.523c-.125-.555-.724-3.213-.73-3.24Z" transform="translate(30.33 7.938)"/>
    <path id="path16" class="cls-2" d="M7.784,0,4.7,7.653,4.367,6.1A8.854,8.854,0,0,0,0,1.39L2.823,11.2l3.337,0L11.124,0H7.784" transform="translate(5.981 7.938)"/>
    <path id="path18" class="cls-3" d="M5.125,0H.04L0,.233C3.956,1.162,6.574,3.407,7.66,6.1L6.555.947C6.364.237,5.81.025,5.125,0" transform="translate(2.671 7.938)"/>
  </g>
</svg>
